<svg xmlns="http://www.w3.org/2000/svg" viewBox="0 0 16 16" width="16" height="16" shape-rendering="crispEdges"><rect x="3" y="6" width="10" height="1" fill="#8ce078"/><rect x="2" y="7" width="12" height="1" fill="#8ce078"/><rect x="2" y="8" width="12" height="1" fill="#8ce078"/><rect x="2" y="9" width="12" height="1" fill="#8ce078"/><rect x="2" y="10" width="12" height="1" fill="#8ce078"/><rect x="2" y="11" width="12" height="1" fill="#8ce078"/><rect x="3" y="12" width="10" height="1" fill="#8ce078"/><rect x="4" y="13" width="8" height="1" fill="#8ce078"/><rect x="12" y="7" width="1" height="5" fill="#5cb85c" fill-opacity="0.55"/><rect x="6" y="13" width="6" height="1" fill="#5cb85c" fill-opacity="0.55"/><rect x="4" y="3" width="1" height="1" fill="#37b24d"/><rect x="5" y="3" width="1" height="1" fill="#37b24d"/><rect x="5" y="4" width="1" height="1" fill="#37b24d"/><rect x="6" y="4" width="1" height="1" fill="#37b24d"/><rect x="10" y="3" width="1" height="1" fill="#37b24d"/><rect x="11" y="3" width="1" height="1" fill="#37b24d"/><rect x="9" y="4" width="1" height="1" fill="#37b24d"/><rect x="10" y="4" width="1" height="1" fill="#37b24d"/><rect x="7" y="5" width="1" height="1" fill="#37b24d"/><rect x="5" y="9" width="2" height="1" fill="#1b2537"/><rect x="10" y="9" width="2" height="1" fill="#1b2537"/><rect x="12" y="2" width="3" height="1" fill="#f1f3f5"/><rect x="14" y="3" width="1" height="1" fill="#f1f3f5"/><rect x="13" y="4" width="1" height="1" fill="#f1f3f5"/><rect x="12" y="5" width="3" height="1" fill="#f1f3f5"/><rect x="2" y="13" width="1" height="1" fill="#74c0fc" fill-opacity="0.7"/><rect x="13" y="12" width="1" height="1" fill="#74c0fc" fill-opacity="0.7"/></svg>